<svg width="24" height="24" viewBox="0 0 24 24" fill="none" xmlns="http://www.w3.org/2000/svg">
<path d="M10.0429 3.15018L10.0433 3.14987C11.1275 2.27906 12.8678 2.28415 13.9682 3.16075C13.9683 3.16085 13.9685 3.16096 13.9686 3.16106L20.5143 8.39758C20.5148 8.39804 20.5154 8.3985 20.516 8.39896C20.8932 8.70713 21.2199 9.18944 21.4306 9.741C21.6413 10.2922 21.7198 10.8699 21.6465 11.351L20.3876 18.8845C20.3875 18.885 20.3874 18.8855 20.3873 18.886C20.1377 20.3188 18.7434 21.5 17.3002 21.5H6.70021C5.23573 21.5 3.87274 20.3477 3.62318 18.8965C3.62312 18.8962 3.62306 18.8958 3.623 18.8955L2.36337 11.3576L2.36318 11.3565C2.28103 10.8718 2.35476 10.293 2.56489 9.74194C2.775 9.19096 3.10573 8.70911 3.49205 8.40087L3.49292 8.40018L10.0429 3.15018ZM12.0002 19.25C12.6863 19.25 13.2502 18.6862 13.2502 18V15C13.2502 14.3139 12.6863 13.75 12.0002 13.75C11.3141 13.75 10.7502 14.3139 10.7502 15V18C10.7502 18.6862 11.3141 19.25 12.0002 19.25Z" stroke="white"/>
</svg>
