<svg width="21" height="20" viewBox="0 0 21 20" fill="none" xmlns="http://www.w3.org/2000/svg">
<path d="M4.66797 16.849C4.91548 16.0252 5.42194 15.3032 6.11222 14.79C6.80249 14.2768 7.63982 13.9997 8.49997 14H12.5C13.3612 13.9997 14.1996 14.2774 14.8904 14.7918C15.5811 15.3062 16.0874 16.0298 16.334 16.855M1.5 10C1.5 11.1819 1.73279 12.3522 2.18508 13.4442C2.63738 14.5361 3.30031 15.5282 4.13604 16.364C4.97177 17.1997 5.96392 17.8626 7.05585 18.3149C8.14778 18.7672 9.3181 19 10.5 19C11.6819 19 12.8522 18.7672 13.9442 18.3149C15.0361 17.8626 16.0282 17.1997 16.864 16.364C17.6997 15.5282 18.3626 14.5361 18.8149 13.4442C19.2672 12.3522 19.5 11.1819 19.5 10C19.5 8.8181 19.2672 7.64778 18.8149 6.55585C18.3626 5.46392 17.6997 4.47177 16.864 3.63604C16.0282 2.80031 15.0361 2.13738 13.9442 1.68508C12.8522 1.23279 11.6819 1 10.5 1C9.3181 1 8.14778 1.23279 7.05585 1.68508C5.96392 2.13738 4.97177 2.80031 4.13604 3.63604C3.30031 4.47177 2.63738 5.46392 2.18508 6.55585C1.73279 7.64778 1.5 8.8181 1.5 10ZM7.5 8C7.5 8.79565 7.81607 9.55871 8.37868 10.1213C8.94129 10.6839 9.70435 11 10.5 11C11.2956 11 12.0587 10.6839 12.6213 10.1213C13.1839 9.55871 13.5 8.79565 13.5 8C13.5 7.20435 13.1839 6.44129 12.6213 5.87868C12.0587 5.31607 11.2956 5 10.5 5C9.70435 5 8.94129 5.31607 8.37868 5.87868C7.81607 6.44129 7.5 7.20435 7.5 8Z" stroke="white" stroke-width="2" stroke-linecap="round" stroke-linejoin="round"/>
</svg>
